<?xml version="1.0" encoding="UTF-8"?>
<svg id="Layer_2" data-name="Layer 2" xmlns="http://www.w3.org/2000/svg" viewBox="0 0 2363.06 589">
  <defs>
    <style>
      .cls-1 {
        opacity: .99;
      }

      .cls-1, .cls-2, .cls-3, .cls-4, .cls-5, .cls-6, .cls-7, .cls-8, .cls-9, .cls-10, .cls-11, .cls-12, .cls-13, .cls-14 {
        fill: #ffffff;
        fill-rule: evenodd;
        isolation: isolate;
        stroke-width: 0px;
      }

      .cls-2 {
        opacity: .94;
      }

      .cls-3 {
        opacity: .95;
      }

      .cls-4 {
        opacity: .96;
      }

      .cls-5 {
        opacity: .92;
      }

      .cls-6 {
        opacity: .91;
      }

      .cls-7 {
        opacity: .99;
      }

      .cls-8 {
        opacity: .95;
      }

      .cls-9 {
        opacity: .94;
      }

      .cls-10 {
        opacity: .91;
      }

      .cls-11 {
        opacity: .93;
      }

      .cls-12 {
        opacity: .95;
      }

      .cls-13 {
        opacity: .99;
      }

      .cls-14 {
        opacity: .99;
      }
    </style>
  </defs>
  <g id="Layer_1-2" data-name="Layer 1">
    <path class="cls-7" d="M2118.06,0c33.97.23,60.47,14.23,79.5,42,3.46,7.04,6.12,14.37,8,22,14.59,55.11,29.59,110.11,45,165,7.09,8.8,15.59,10.3,25.5,4.5,1.93-2.26,3.43-4.76,4.5-7.5,1.22-74.99,2.05-149.99,2.5-225h80c-.09,79.34-.59,158.67-1.5,238-5.41,40.98-27.58,68.48-66.5,82.5-41.3,12.45-75.8,2.29-103.5-30.5-5.36-7.39-9.7-15.39-13-24-15.49-56.29-30.82-112.62-46-169-8.32-12.56-17.65-13.23-28-2-.86,1.59-1.53,3.25-2,5-.5,75.33-.67,150.67-.5,226h-80c-.17-80.67,0-161.33.5-242,7.29-39.3,29.79-65.8,67.5-79.5,9.31-2.7,18.64-4.53,28-5.5Z"/>
    <path class="cls-1" d="M145.06,1c56.08-4.21,103.08,14.12,141,55C339.19,2.14,401.53-12.03,473.06,13.5c57.34,26.7,90.17,71.53,98.5,134.5.5,59.67.67,119.33.5,179h-79c.17-57,0-114-.5-171-8.88-45.88-36.54-71.21-83-76-20.97,1.48-38.3,10.15-52,26-12.59,15.5-22.93,32.5-31,51-4.95,13.53-10.28,26.86-16,40-16,16-32,16-48,0-6.06-15.78-12.39-31.45-19-47-7.42-16.53-17.09-31.53-29-45-31.03-30.09-64.53-32.93-100.5-8.5-18.65,14.69-29.82,33.85-33.5,57.5-.5,57.33-.67,114.67-.5,172H.06c-.17-57.33,0-114.67.5-172C7.67,88.88,40.51,42.05,99.06,13.5c14.96-6.07,30.29-10.24,46-12.5Z"/>
    <path class="cls-7" d="M773.06,1c68.63-3.94,121.46,22.73,158.5,80,11.4,19.53,18.4,40.53,21,63,1.44,60.65,1.94,121.32,1.5,182h-80v-50h-167v50h-79c-.17-59.67,0-119.33.5-179,7.11-55.07,34.28-96.9,81.5-125.5,19.85-10.79,40.85-17.62,63-20.5ZM782.06,80c38.33-1.43,66.49,14.57,84.5,48,2.4,5.86,4.4,11.86,6,18,1.43,16.95,1.93,33.95,1.5,51h-167c-.39-16.04.11-32.04,1.5-48,9.56-39.06,34.06-62.06,73.5-69Z"/>
    <path class="cls-14" d="M1145.06,1c47.87-2.38,88.87,12.95,123,46-19.52,22.35-38.85,44.85-58,67.5-1,.67-2,.67-3,0-18.92-19.19-41.59-25.86-68-20-37.08,12.98-54.58,39.15-52.5,78.5,7.85,38.19,31.19,59.19,70,63,22.33-1,40.66-10,55-27,48.46-56.8,97.29-113.3,146.5-169.5,48.22-38.87,101.89-48.54,161-29,34.25,13.58,61.25,35.92,81,67-25.16,16.42-50.5,32.58-76,48.5-24.75-33.63-56.42-42.13-95-25.5-8.05,5.04-15.22,11.21-21.5,18.5-47.34,56.49-95.51,112.32-144.5,167.5-49.74,40.74-105.07,50.4-166,29-59.63-27-93.13-73.16-100.5-138.5-3.07-59.34,18.43-107.51,64.5-144.5,25.2-18.11,53.2-28.61,84-31.5Z"/>
    <path class="cls-7" d="M1792.06,1c69.62-3.94,122.79,23.39,159.5,82,11.09,19.94,17.76,41.27,20,64,.5,59.67.67,119.33.5,179h-79v-50h-167v50h-80c-.17-55.67,0-111.33.5-167,4.85-70.15,39.35-119.32,103.5-147.5,13.74-5.1,27.74-8.6,42-10.5ZM1801.06,80c39.41-1.05,67.91,15.95,85.5,51,2.27,5.14,3.94,10.47,5,16,1.41,16.62,1.91,33.29,1.5,50h-167c-.41-16.38.09-32.71,1.5-49,10-38.51,34.5-61.17,73.5-68Z"/>
    <path class="cls-13" d="M1525.06,197c26.66,14.33,52.99,29.16,79,44.5-27.7,49.71-70.03,77.71-127,84-48.48,3.4-90.31-11.43-125.5-44.5-.67-1-.67-2,0-3,19.67-22.33,39.33-44.67,59-67,27.86,27.39,58.7,31.23,92.5,11.5,9.38-6.87,16.71-15.37,22-25.5Z"/>
    <path class="cls-6" d="M960.06,433c12.63.46,16.47,6.46,11.5,18-7.08,5.71-13.41,5.05-19-2-2.51-7.97-.01-13.3,7.5-16Z"/>
    <path class="cls-12" d="M612.06,441c20.66-1.27,39.99,3.06,58,13l1,1c-2.11,4.56-4.44,8.89-7,13-10.98-5.88-22.65-9.55-35-11v101h-17v-101c-12.23,1.36-23.73,5.02-34.5,11-2.72-3.8-4.89-7.96-6.5-12.5,4.63-3.99,9.96-6.99,16-9,8.33-2.49,16.66-4.33,25-5.5Z"/>
    <path class="cls-8" d="M1345.06,441c19.47-1.79,36.3,3.88,50.5,17,.67,1,.67,2,0,3-3.02,3.18-6.18,6.18-9.5,9-14.61-12.76-31.28-16.26-50-10.5-21.06,9.76-30.22,26.26-27.5,49.5,5.11,21.94,18.95,33.61,41.5,35,10.89-.24,20.39-3.91,28.5-11,.5-11.33.67-22.66.5-34h16v59h-15c.16-2.36,0-4.69-.5-7-19.52,10.08-39.35,10.58-59.5,1.5-23.95-14.77-33.45-36.27-28.5-64.5,7.2-27.84,25.03-43.5,53.5-47Z"/>
    <path class="cls-2" d="M709.06,469c30.04.17,46.38,15.17,49,45-2.06,28.23-17.23,43.23-45.5,45-28.33-1.83-43.5-16.83-45.5-45,1.63-26.63,15.63-41.63,42-45ZM708.06,484c17.89-.66,28.72,7.68,32.5,25,.5,25.82-12,36.99-37.5,33.5-10.11-3.78-16.28-10.94-18.5-21.5-2.79-19.33,5.04-31.66,23.5-37Z"/>
    <path class="cls-4" d="M932.06,469h4c.33,5.71,0,11.37-1,17-17.38-1.47-27.21,6.53-29.5,24-.5,16-.67,32-.5,48h-16v-88h16c-.17,4.01,0,8.01.5,12,2.43-3.63,5.59-6.47,9.5-8.5,5.59-2.31,11.25-3.81,17-4.5Z"/>
    <path class="cls-9" d="M1024.06,469c10.67-.02,21,1.81,31,5.5,2.05.69,3.72,1.85,5,3.5-1.99,4.66-4.49,8.99-7.5,13-9.94-6.25-20.77-8.42-32.5-6.5-9.43,1.4-12.93,6.57-10.5,15.5,2.87,2.96,6.37,4.8,10.5,5.5,11.78,1.44,23.11,4.44,34,9,9.72,8.6,11.55,18.77,5.5,30.5-5.35,7.1-12.51,11.26-21.5,12.5-15.59,2.45-30.59.45-45-6-1.83-.9-3.16-2.23-4-4,2.12-4.28,4.45-8.45,7-12.5,14.5,9.36,29.83,11.2,46,5.5,4.84-4.38,5.18-9.05,1-14-11.81-3.64-23.81-6.64-36-9-12.87-5.24-17.7-14.74-14.5-28.5,2.81-8.14,8.31-13.64,16.5-16.5,5.05-1.57,10.05-2.74,15-3.5Z"/>
    <path class="cls-11" d="M1123.06,469c14.03-.78,25.37,4.22,34,15,8.57-10.11,19.57-15.11,33-15,20.75.26,32.58,10.59,35.5,31,.5,19.33.67,38.66.5,58h-17c.45-20.05-.05-40.05-1.5-60-3.63-8.83-10.29-13.49-20-14-14.11.87-22.45,8.21-25,22-.5,17.33-.67,34.66-.5,52h-17c.17-19,0-38-.5-57-2.81-10.8-9.81-16.47-21-17-14.7.84-23.03,8.5-25,23-.5,17-.67,34-.5,51h-17v-88h16c-.17,4.01,0,8.01.5,12,6.83-7.67,15.33-12,25.5-13Z"/>
    <path class="cls-5" d="M1467.06,469h4c.33,5.71,0,11.37-1,17-16.02-1.83-25.85,5.17-29.5,21-.5,17-.67,34-.5,51h-17v-88h16c-.17,4.35,0,8.68.5,13,2.17-3.5,5-6.33,8.5-8.5,6.14-2.95,12.48-4.78,19-5.5Z"/>
    <path class="cls-2" d="M1522.06,469c30.15.16,46.49,15.16,49,45-2.01,28.17-17.17,43.17-45.5,45-28.28-1.78-43.45-16.78-45.5-45,1.69-26.69,15.69-41.69,42-45ZM1521.06,484c24.09.6,34.93,12.93,32.5,37-4.54,16.52-15.37,24.02-32.5,22.5-13.17-2.5-21-10.33-23.5-23.5-2.26-18.86,5.58-30.86,23.5-36Z"/>
    <path class="cls-8" d="M1745.06,469c35.27,2.12,50.77,20.78,46.5,56-5.91,21.81-20.24,33.14-43,34-11.26-.3-20.92-4.3-29-12-.5,14-.67,28-.5,42h-17v-119h16c-.17,4.01,0,8.01.5,12,7.27-7.69,16.1-12.02,26.5-13ZM1742.06,484c20.37-.3,31.7,9.7,34,30-2.27,20.44-13.6,30.28-34,29.5-15.11-3.95-23.11-13.79-24-29.5,1.05-15.71,9.05-25.71,24-30Z"/>
    <path class="cls-9" d="M777.06,470h17c-.44,19.71.06,39.38,1.5,59,6.99,13.78,17.82,17.94,32.5,12.5,6.88-2.58,11.38-7.42,13.5-14.5,1.45-18.95,1.95-37.95,1.5-57h17v88h-16c.17-4.01,0-8.01-.5-12-7.6,8.63-17.27,12.96-29,13-23.71-1.04-36.04-13.37-37-37-.5-17.33-.67-34.66-.5-52Z"/>
    <path class="cls-10" d="M954.06,470h17v88h-17v-88Z"/>
    <path class="cls-3" d="M1591.06,470h16c-.17,16.34,0,32.67.5,49-.03,15.14,7.47,23.47,22.5,25,16.73-1.23,25.57-10.23,26.5-27,.5-15.66.67-31.33.5-47h16v88h-16c.17-3.68,0-7.35-.5-11-7.6,7.87-16.94,11.87-28,12-11.71.14-21.71-3.86-30-12-3.71-5.09-6.04-10.76-7-17-.5-20-.67-40-.5-60Z"/>
  </g>
</svg>